<?xml version="1.0" standalone="no"?><!-- Generator: Gravit.io --><svg xmlns="http://www.w3.org/2000/svg" xmlns:xlink="http://www.w3.org/1999/xlink" style="isolation:isolate" viewBox="0 0 512 512" width="512" height="512"><defs><clipPath id="_clipPath_AOUkgJsM2ePTuARMKFft3AKl5F6WH6ik"><rect width="512" height="512"/></clipPath></defs><g clip-path="url(#_clipPath_AOUkgJsM2ePTuARMKFft3AKl5F6WH6ik)"><path d=" M 428.693 196.869 L 506.11 334.784 L 429.889 334.784 L 380.5 239.252 L 360.504 251.215 L 360.504 334.784 L 292.658 334.784 L 292.658 84.931 L 360.504 84.931 L 360.504 193.451 L 360.504 193.451 Q 365.631 183.368 381.183 161.493 L 381.183 161.493 L 433.649 84.931 L 507.477 84.931 L 428.693 196.869 Z " fill="rgb(64,186,101)"/><path d=" M 247.541 209.516 L 247.541 209.516 L 247.541 209.516 Q 247.541 294.452 193.537 324.018 L 193.537 324.018 L 254.547 394.257 L 170.465 394.257 L 126.374 338.715 L 126.203 338.544 L 126.203 338.373 L 126.032 338.202 L 126.032 338.202 Q 67.243 338.202 35.883 305.219 L 35.883 305.219 L 35.883 305.219 Q 4.523 272.235 4.523 209.174 L 4.523 209.174 L 4.523 209.174 Q 4.523 146.796 35.712 113.898 L 35.712 113.898 L 35.712 113.898 Q 66.901 81 126.374 81 L 126.374 81 L 126.374 81 Q 186.017 81 216.779 113.642 L 216.779 113.642 L 216.779 113.642 Q 247.541 146.283 247.541 209.516 Z  M 75.617 209.516 L 75.617 209.516 L 75.617 209.516 Q 75.617 281.977 126.032 281.977 L 126.032 281.977 L 126.032 281.977 Q 151.667 281.977 164.057 264.374 L 164.057 264.374 L 164.057 264.374 Q 176.447 246.771 176.447 209.516 L 176.447 209.516 L 176.447 209.516 Q 176.447 172.089 163.886 154.23 L 163.886 154.23 L 163.886 154.23 Q 151.325 136.371 126.374 136.371 L 126.374 136.371 L 126.374 136.371 Q 75.617 136.371 75.617 209.516 Z " fill-rule="evenodd" fill="rgb(222,30,61)"/><path d=" M 19.5 422.259 C 197.137 467.26 321.492 359.953 492.5 422.259" fill="none" vector-effect="non-scaling-stroke" stroke-width="25" stroke="rgb(255,153,0)" stroke-linejoin="miter" stroke-linecap="square" stroke-miterlimit="3"/></g></svg>