<?xml version="1.0" standalone="no"?><!-- Generator: Gravit.io --><svg xmlns="http://www.w3.org/2000/svg" xmlns:xlink="http://www.w3.org/1999/xlink" style="isolation:isolate" viewBox="0 0 650 125" width="650" height="125"><defs><clipPath id="_clipPath_DRjTdhzWVfqEq3NCwDS86URLG9q0Pfl3"><rect width="650" height="125"/></clipPath></defs><g clip-path="url(#_clipPath_DRjTdhzWVfqEq3NCwDS86URLG9q0Pfl3)"><path d=" M 350.818 37.889 L 370.726 73.353 L 351.126 73.353 L 338.426 48.788 L 333.284 51.864 L 333.284 73.353 L 315.838 73.353 L 315.838 9.105 L 333.284 9.105 L 333.284 37.01 L 333.284 37.01 Q 334.603 34.418 338.602 28.793 L 338.602 28.793 L 352.093 9.105 L 371.077 9.105 L 350.818 37.889 L 350.818 37.889 Z  M 425.262 73.353 L 408.079 73.353 L 408.079 46.195 L 408.079 46.195 Q 408.079 41.229 406.651 38.702 L 406.651 38.702 L 406.651 38.702 Q 405.223 36.175 402.059 36.175 L 402.059 36.175 L 402.059 36.175 Q 397.708 36.175 395.774 39.647 L 395.774 39.647 L 395.774 39.647 Q 393.841 43.119 393.841 51.556 L 393.841 51.556 L 393.841 73.353 L 376.658 73.353 L 376.658 23.563 L 389.622 23.563 L 391.775 29.716 L 392.786 29.716 L 392.786 29.716 Q 394.983 26.2 398.873 24.442 L 398.873 24.442 L 398.873 24.442 Q 402.762 22.684 407.815 22.684 L 407.815 22.684 L 407.815 22.684 Q 416.077 22.684 420.669 27.474 L 420.669 27.474 L 420.669 27.474 Q 425.262 32.264 425.262 40.966 L 425.262 40.966 L 425.262 73.353 L 425.262 73.353 Z  M 484.5 48.348 L 484.5 48.348 L 484.5 48.348 Q 484.5 60.565 477.93 67.399 L 477.93 67.399 L 477.93 67.399 Q 471.36 74.232 459.539 74.232 L 459.539 74.232 L 459.539 74.232 Q 448.201 74.232 441.5 67.245 L 441.5 67.245 L 441.5 67.245 Q 434.798 60.257 434.798 48.348 L 434.798 48.348 L 434.798 48.348 Q 434.798 36.175 441.368 29.43 L 441.368 29.43 L 441.368 29.43 Q 447.938 22.684 459.803 22.684 L 459.803 22.684 L 459.803 22.684 Q 467.142 22.684 472.767 25.804 L 472.767 25.804 L 472.767 25.804 Q 478.392 28.924 481.446 34.747 L 481.446 34.747 L 481.446 34.747 Q 484.5 40.57 484.5 48.348 Z  M 452.244 48.348 L 452.244 48.348 L 452.244 48.348 Q 452.244 54.764 453.958 58.126 L 453.958 58.126 L 453.958 58.126 Q 455.672 61.488 459.715 61.488 L 459.715 61.488 L 459.715 61.488 Q 463.714 61.488 465.362 58.126 L 465.362 58.126 L 465.362 58.126 Q 467.01 54.764 467.01 48.348 L 467.01 48.348 L 467.01 48.348 Q 467.01 41.976 465.34 38.724 L 465.34 38.724 L 465.34 38.724 Q 463.67 35.472 459.627 35.472 L 459.627 35.472 L 459.627 35.472 Q 455.672 35.472 453.958 38.702 L 453.958 38.702 L 453.958 38.702 Q 452.244 41.932 452.244 48.348 Z  M 555.516 73.353 L 537.146 73.353 L 531.521 49.623 L 530.203 42.46 L 529.324 36.703 L 529.061 36.703 L 529.061 36.703 Q 526.907 49.007 526.16 52.216 L 526.16 52.216 L 521.106 73.353 L 503.045 73.353 L 489.466 23.563 L 506.385 23.563 L 510.428 42.679 L 510.428 42.679 Q 512.361 52.523 512.669 59.027 L 512.669 59.027 L 512.933 59.027 L 512.933 59.027 Q 513.064 54.984 515.35 43.646 L 515.35 43.646 L 519.964 23.563 L 538.948 23.563 L 543.167 43.91 L 543.167 43.91 Q 545.188 53.622 545.716 59.027 L 545.716 59.027 L 545.979 59.027 L 545.979 59.027 Q 546.243 55.687 546.858 50.699 L 546.858 50.699 L 546.858 50.699 Q 547.474 45.712 548.221 42.679 L 548.221 42.679 L 552.615 23.563 L 569.183 23.563 L 555.516 73.353 L 555.516 73.353 Z  M 614.666 58.06 L 614.666 58.06 L 614.666 58.06 Q 614.666 66.058 609.217 70.145 L 609.217 70.145 L 609.217 70.145 Q 603.768 74.232 593.572 74.232 L 593.572 74.232 L 593.572 74.232 Q 588.035 74.232 583.948 73.639 L 583.948 73.639 L 583.948 73.639 Q 579.861 73.046 575.599 71.464 L 575.599 71.464 L 575.599 57.709 L 575.599 57.709 Q 579.598 59.466 584.366 60.609 L 584.366 60.609 L 584.366 60.609 Q 589.134 61.752 592.869 61.752 L 592.869 61.752 L 592.869 61.752 Q 598.45 61.752 598.45 59.203 L 598.45 59.203 L 598.45 59.203 Q 598.45 57.884 596.89 56.852 L 596.89 56.852 L 596.89 56.852 Q 595.33 55.819 587.815 52.831 L 587.815 52.831 L 587.815 52.831 Q 580.96 50.018 578.235 46.437 L 578.235 46.437 L 578.235 46.437 Q 575.511 42.855 575.511 37.362 L 575.511 37.362 L 575.511 37.362 Q 575.511 30.419 580.872 26.551 L 580.872 26.551 L 580.872 26.551 Q 586.233 22.684 596.033 22.684 L 596.033 22.684 L 596.033 22.684 Q 600.955 22.684 605.284 23.761 L 605.284 23.761 L 605.284 23.761 Q 609.612 24.838 614.271 26.903 L 614.271 26.903 L 609.612 37.977 L 609.612 37.977 Q 606.185 36.439 602.361 35.362 L 602.361 35.362 L 602.361 35.362 Q 598.538 34.286 596.121 34.286 L 596.121 34.286 L 596.121 34.286 Q 591.902 34.286 591.902 36.351 L 591.902 36.351 L 591.902 36.351 Q 591.902 37.626 593.375 38.527 L 593.375 38.527 L 593.375 38.527 Q 594.847 39.427 601.878 42.196 L 601.878 42.196 L 601.878 42.196 Q 607.107 44.349 609.678 46.415 L 609.678 46.415 L 609.678 46.415 Q 612.249 48.48 613.458 51.271 L 613.458 51.271 L 613.458 51.271 Q 614.666 54.061 614.666 58.06 Z " fill-rule="evenodd" fill="rgb(64,186,101)"/><path d=" M 169.061 41.141 L 169.061 41.141 L 169.061 41.141 Q 169.061 62.982 155.174 70.585 L 155.174 70.585 L 170.862 88.646 L 149.241 88.646 L 137.903 74.364 L 137.859 74.32 L 137.859 74.276 L 137.815 74.232 L 137.815 74.232 Q 122.698 74.232 114.634 65.751 L 114.634 65.751 L 114.634 65.751 Q 106.57 57.269 106.57 41.053 L 106.57 41.053 L 106.57 41.053 Q 106.57 25.013 114.59 16.554 L 114.59 16.554 L 114.59 16.554 Q 122.61 8.094 137.903 8.094 L 137.903 8.094 L 137.903 8.094 Q 153.24 8.094 161.15 16.488 L 161.15 16.488 L 161.15 16.488 Q 169.061 24.882 169.061 41.141 Z  M 124.852 41.141 L 124.852 41.141 L 124.852 41.141 Q 124.852 59.774 137.815 59.774 L 137.815 59.774 L 137.815 59.774 Q 144.407 59.774 147.593 55.248 L 147.593 55.248 L 147.593 55.248 Q 150.779 50.721 150.779 41.141 L 150.779 41.141 L 150.779 41.141 Q 150.779 31.517 147.549 26.925 L 147.549 26.925 L 147.549 26.925 Q 144.319 22.333 137.903 22.333 L 137.903 22.333 L 137.903 22.333 Q 124.852 22.333 124.852 41.141 Z  M 228.079 73.353 L 215.115 73.353 L 212.962 67.157 L 211.951 67.157 L 211.951 67.157 Q 209.798 70.585 205.953 72.408 L 205.953 72.408 L 205.953 72.408 Q 202.107 74.232 196.922 74.232 L 196.922 74.232 L 196.922 74.232 Q 188.704 74.232 184.134 69.464 L 184.134 69.464 L 184.134 69.464 Q 179.563 64.696 179.563 55.995 L 179.563 55.995 L 179.563 23.563 L 196.746 23.563 L 196.746 50.765 L 196.746 50.765 Q 196.746 55.643 198.13 58.148 L 198.13 58.148 L 198.13 58.148 Q 199.515 60.653 202.679 60.653 L 202.679 60.653 L 202.679 60.653 Q 207.117 60.653 209.007 57.159 L 209.007 57.159 L 209.007 57.159 Q 210.896 53.666 210.896 45.36 L 210.896 45.36 L 210.896 23.563 L 228.079 23.563 L 228.079 73.353 L 228.079 73.353 Z  M 257.215 23.563 L 257.215 73.353 L 240.032 73.353 L 240.032 23.563 L 257.215 23.563 L 257.215 23.563 Z  M 239.593 11.171 L 239.593 11.171 L 239.593 11.171 Q 239.593 7.303 241.746 5.414 L 241.746 5.414 L 241.746 5.414 Q 243.899 3.524 248.689 3.524 L 248.689 3.524 L 248.689 3.524 Q 253.479 3.524 255.677 5.458 L 255.677 5.458 L 255.677 5.458 Q 257.874 7.391 257.874 11.171 L 257.874 11.171 L 257.874 11.171 Q 257.874 18.729 248.689 18.729 L 248.689 18.729 L 248.689 18.729 Q 239.593 18.729 239.593 11.171 Z  M 306.653 60.214 L 306.653 73.353 L 265.433 73.353 L 265.433 63.553 L 286.043 36.703 L 266.619 36.703 L 266.619 23.563 L 305.687 23.563 L 305.687 34.198 L 285.955 60.214 L 306.653 60.214 L 306.653 60.214 Z " fill-rule="evenodd" fill="rgb(222,30,61)"/><path d=" M 19.856 8.056 C 21.146 8.056 22.475 8.486 23.454 9.461 L 37.197 23.358 L 17.358 43.197 L 3.466 29.454 C 1.511 27.457 1.511 24.265 3.466 22.268 L 16.263 9.456 C 17.228 8.531 18.52 8.028 19.856 8.056 Z  M 42.504 28.67 L 97.003 83.169 L 102 108 L 77.169 103.003 L 22.67 48.504 L 42.504 28.67 Z " fill="rgb(255,153,0)"/><path d=" M 108 108 C 310.712 149.116 445.061 33.455 638 108" fill="none" vector-effect="non-scaling-stroke" stroke-width="7.5" stroke="rgb(255,153,0)" stroke-linejoin="miter" stroke-linecap="square" stroke-miterlimit="3"/></g></svg>